<svg width="176" height="32" viewBox="0 0 176 32" fill="none" xmlns="http://www.w3.org/2000/svg">
<g clip-path="url(#clip0_6567_11373)">
<path d="M15.1579 8.42108H0V32H6.73684V15.1579H15.1579V16.8421H8.42105V23.579H15.1579C18.8785 23.579 21.8947 20.5628 21.8947 16.8421V15.1579C21.8947 11.4372 18.8785 8.42108 15.1579 8.42108Z" fill="url(#paint0_linear_6567_11373)"/>
<path d="M93.3684 15.1579V11.7895C93.3684 9.9292 91.8603 8.42108 90 8.42108H73.1579C71.2975 8.42108 69.7895 9.9292 69.7895 11.7895V20.2106C69.7895 22.0709 71.2975 23.579 73.1579 23.579H76.5263V15.1579H93.3684Z" fill="url(#paint1_linear_6567_11373)"/>
<path d="M55.5789 8.42108H48.8421V32H67.3684V25.2632H55.5789V8.42108Z" fill="url(#paint2_linear_6567_11373)"/>
<path d="M86.6316 23.579H78.2105V16.8421H90C91.8603 16.8421 93.3684 18.3503 93.3684 20.2106V28.6316C93.3684 30.4919 91.8603 32 90 32H73.1579C71.2975 32 69.7895 30.4919 69.7895 28.6316V25.2632H86.6316V23.579Z" fill="url(#paint3_linear_6567_11373)"/>
<path d="M30.1579 8.42108H23.421V25.2632C23.421 28.9839 26.4372 32 30.1579 32H40.2631C43.9838 32 47 28.9839 47 25.2632V8.42108H40.2631V25.2632H30.1579V8.42108Z" fill="url(#paint4_linear_6567_11373)"/>
<path d="M128.336 23.5789H148.546C150.407 23.5789 151.915 22.0708 151.915 20.2105V6.73684C151.915 3.01614 148.899 0 145.178 0H128.336V15.1579H135.073V6.73684H145.178V16.8421H128.336V23.5789Z" fill="url(#paint5_linear_6567_11373)"/>
<path fill-rule="evenodd" clip-rule="evenodd" d="M103.997 23.5789V16.8421H119.155V6.73684H102.312C102.312 3.01614 105.329 0 109.049 0H122.523C124.383 0 125.891 1.50812 125.891 3.36842V20.2105C125.891 22.0708 124.383 23.5789 122.523 23.5789H103.997ZM117.481 8.42107V15.1053L102.323 15.1579L102.323 25.2632H119.165C119.165 28.9838 116.149 32 112.428 32H98.9544C97.094 32 95.5859 30.4919 95.5859 28.6316V11.7895C95.5859 9.92916 97.094 8.42107 98.9544 8.42107H117.481Z" fill="url(#paint6_linear_6567_11373)"/>
<path d="M156.336 17.3333H159.003V32H156.336V17.3333Z" fill="#192651"/>
<path d="M149.336 30.3333C149.336 29.4128 150.082 28.6667 151.003 28.6667C151.923 28.6667 152.669 29.4128 152.669 30.3333C152.669 31.2538 151.923 32 151.003 32C150.082 32 149.336 31.2538 149.336 30.3333Z" fill="#192651"/>
<path fill-rule="evenodd" clip-rule="evenodd" d="M162 20.3333C162 18.6765 163.343 17.3333 165 17.3333H172.333C173.99 17.3333 175.333 18.6765 175.333 20.3333V29C175.333 30.6568 173.99 32 172.333 32H165C163.343 32 162 30.6568 162 29V20.3333ZM164.667 20H172.667V29.3333H164.667V20Z" fill="#192651"/>
</g>
<defs>
<linearGradient id="paint0_linear_6567_11373" x1="9.21848e-08" y1="25" x2="96" y2="20" gradientUnits="userSpaceOnUse">
<stop stop-color="#4971FF"/>
<stop offset="1" stop-color="#7C2CFF"/>
</linearGradient>
<linearGradient id="paint1_linear_6567_11373" x1="9.21848e-08" y1="25" x2="96" y2="20" gradientUnits="userSpaceOnUse">
<stop stop-color="#4971FF"/>
<stop offset="1" stop-color="#7C2CFF"/>
</linearGradient>
<linearGradient id="paint2_linear_6567_11373" x1="9.21848e-08" y1="25" x2="96" y2="20" gradientUnits="userSpaceOnUse">
<stop stop-color="#4971FF"/>
<stop offset="1" stop-color="#7C2CFF"/>
</linearGradient>
<linearGradient id="paint3_linear_6567_11373" x1="9.21848e-08" y1="25" x2="96" y2="20" gradientUnits="userSpaceOnUse">
<stop stop-color="#4971FF"/>
<stop offset="1" stop-color="#7C2CFF"/>
</linearGradient>
<linearGradient id="paint4_linear_6567_11373" x1="9.21848e-08" y1="25" x2="96" y2="20" gradientUnits="userSpaceOnUse">
<stop stop-color="#4971FF"/>
<stop offset="1" stop-color="#7C2CFF"/>
</linearGradient>
<linearGradient id="paint5_linear_6567_11373" x1="123" y1="12" x2="151.999" y2="12.1245" gradientUnits="userSpaceOnUse">
<stop stop-color="#EA51B9"/>
<stop offset="1" stop-color="#FF4D4D"/>
</linearGradient>
<linearGradient id="paint6_linear_6567_11373" x1="104" y1="24" x2="119.573" y2="7.06688" gradientUnits="userSpaceOnUse">
<stop stop-color="#7C2CFF"/>
<stop offset="1" stop-color="#EC51B7"/>
</linearGradient>
<clipPath id="clip0_6567_11373">
<rect width="175.333" height="32" fill="white"/>
</clipPath>
</defs>
</svg>
